<?xml version="1.0" encoding="UTF-8"?>
<svg width="163px" height="153px" viewBox="0 0 163 153" version="1.1" xmlns="http://www.w3.org/2000/svg" xmlns:xlink="http://www.w3.org/1999/xlink">
    <!-- Generator: Sketch 59 (86127) - https://sketch.com -->
    <title>编组</title>
    <desc>Created with Sketch.</desc>
    <defs>
        <polygon id="path-1" points="0.759857447 0.275943972 1.91588582 0.275943972 1.91588582 1.15602837 0.759857447 1.15602837"></polygon>
        <polygon id="path-3" points="0.428886525 0.569343972 1.58491489 0.569343972 1.58491489 1.15602837 0.428886525 1.15602837"></polygon>
        <polygon id="path-5" points="0.0436978723 0.041848227 1.19972624 0.041848227 1.19972624 1.15602837 0.0436978723 1.15602837"></polygon>
        <polygon id="path-7" points="0.905748227 1.12943972 162.953181 1.12943972 162.953181 80.8021057 0.905748227 80.8021057"></polygon>
        <polygon id="path-9" points="0.238257447 0.404378723 1.39428582 0.404378723 1.39428582 1.15602837 0.238257447 1.15602837"></polygon>
        <polygon id="path-11" points="0.000462411348 0.8850679 163 0.8850679 163 100.889881 0.000462411348 100.889881"></polygon>
        <polygon id="path-13" points="1.11001844 0.42890121 8.22768511 0.42890121 8.22768511 1.15602837 1.11001844 1.15602837"></polygon>
        <polygon id="path-15" points="0.75835461 0.226812766 4.14204965 0.226812766 4.14204965 1.15602837 0.75835461 1.15602837"></polygon>
        <polygon id="path-17" points="0.958578723 0.49142766 4.3723305 0.49142766 4.3723305 1.15602837 0.958578723 1.15602837"></polygon>
        <polygon id="path-19" points="0.228084397 0.0485531915 3.64877234 0.0485531915 3.64877234 1.15602837 0.228084397 1.15602837"></polygon>
        <polygon id="path-21" points="0.945978014 0.784175956 138.538787 0.784175956 138.538787 48.5531915 0.945978014 48.5531915"></polygon>
    </defs>
    <g id="页面-17" stroke="none" stroke-width="1" fill="none" fill-rule="evenodd">
        <g id="登录备份-11" transform="translate(-608.000000, -447.000000)">
            <g id="编组-2" transform="translate(608.000000, 446.000000)">
                <g id="编组">
                    <path d="M87.0724035,148.548952 C86.9660489,148.595193 86.8585383,148.646058 86.7533397,148.691143 C86.8585383,148.646058 86.9660489,148.595193 87.0724035,148.548952" id="Fill-1" fill="#5FB2E3"></path>
                    <path d="M94.1361993,145.198319 C92.9639865,145.738184 91.7790574,146.303482 90.5710078,146.912709 C91.7790574,146.303482 92.9639865,145.738184 94.1361993,145.198319" id="Fill-3" fill="#5FB2E3"></path>
                    <path d="M104.991999,140.990838 C104.061396,141.277533 103.116921,141.591973 102.157418,141.929533 C103.116921,141.591973 104.061396,141.277533 104.991999,140.990838" id="Fill-5" fill="#5FB2E3"></path>
                    <path d="M97.6313355,143.672015 C96.839456,144.000327 96.0371723,144.349448 95.2279525,144.711284 C96.0371723,144.349448 96.839456,144.000327 97.6313355,143.672015" id="Fill-7" fill="#5FB2E3"></path>
                    <path d="M83.4247872,150.008669 C83.2710355,150.065314 83.1161277,150.125428 82.9623759,150.178605 C83.1161277,150.125428 83.2710355,150.065314 83.4247872,150.008669" id="Fill-9" fill="#5FB2E3"></path>
                    <path d="M79.7128957,151.240417 C79.5441156,151.291282 79.3741794,151.342148 79.2042433,151.390701 C79.3741794,151.342148 79.5441156,151.291282 79.7128957,151.240417" id="Fill-11" fill="#5FB2E3"></path>
                    <g transform="translate(67.049645, 152.622333)">
                        <mask id="mask-2" fill="white">
                            <use xlink:href="#path-1"></use>
                        </mask>
                        <g id="Clip-14"></g>
                        <path d="M1.38411277,0.849912057 C1.3529,0.853380142 1.32168723,0.85453617 1.2916305,0.858004255 C1.32168723,0.85453617 1.3529,0.853380142 1.38411277,0.849912057" id="Fill-13" fill="#5FB2E3" mask="url(#mask-2)"></path>
                    </g>
                    <path d="M72.2043759,152.972148 C72.087617,152.990644 71.9708582,153.006828 71.8540993,153.025325 C71.9708582,153.006828 72.087617,152.990644 72.2043759,152.972148" id="Fill-15" fill="#5FB2E3"></path>
                    <path d="M75.9659766,152.229284 C75.8087567,152.265121 75.6526929,152.299801 75.494317,152.334482 C75.6526929,152.299801 75.8087567,152.265121 75.9659766,152.229284" id="Fill-17" fill="#5FB2E3"></path>
                    <path d="M123.25586,138.388618 C122.484789,138.344689 121.69869,138.320413 120.89525,138.322725 C121.69869,138.320413 122.484789,138.344689 123.25586,138.388618" id="Fill-19" fill="#5FB2E3"></path>
                    <path d="M108.478118,140.006365 C107.453877,140.265315 106.413452,140.55201 105.351062,140.873386 C106.413452,140.55201 107.453877,140.265315 108.478118,140.006365" id="Fill-21" fill="#5FB2E3"></path>
                    <path d="M134.905389,141.265164 C134.311191,140.979625 133.701964,140.712582 133.075396,140.466348 C133.701964,140.712582 134.311191,140.979625 134.905389,141.265164" id="Fill-23" fill="#5FB2E3"></path>
                    <path d="M136.954334,142.358998 L136.954334,142.358998 C136.362448,142.007565 135.749752,141.679253 135.120873,141.370594 C135.749752,141.679253 136.362448,142.007565 136.954334,142.358998" id="Fill-25" fill="#5FB2E3"></path>
                    <path d="M125.76213,138.623408 C125.105506,138.539018 124.436165,138.471968 123.752952,138.423415 C124.435009,138.473124 125.105506,138.539018 125.76213,138.623408" id="Fill-27" fill="#5FB2E3"></path>
                    <path d="M114.481836,138.814152 C113.785907,138.914727 113.08073,139.03033 112.363992,139.162117 C113.08073,139.03033 113.785907,138.914727 114.481836,138.814152" id="Fill-29" fill="#5FB2E3"></path>
                    <g transform="translate(60.113475, 152.622333)">
                        <mask id="mask-4" fill="white">
                            <use xlink:href="#path-3"></use>
                        </mask>
                        <g id="Clip-32"></g>
                        <path d="M1.10978723,1.14793617 C1.04042553,1.14678014 0.973375887,1.14793617 0.904014184,1.14678014 C0.973375887,1.14793617 1.04042553,1.14678014 1.10978723,1.14793617" id="Fill-31" fill="#5FB2E3" mask="url(#mask-4)"></path>
                    </g>
                    <path d="M111.49015,139.327891 C110.735264,139.479331 109.967661,139.650423 109.189654,139.8377 C109.967661,139.650423 110.73642,139.478175 111.49015,139.327891" id="Fill-33" fill="#5FB2E3"></path>
                    <path d="M117.717328,138.451853 C116.909265,138.514279 116.085016,138.598669 115.24574,138.707335 C116.085016,138.599825 116.909265,138.513123 117.717328,138.451853" id="Fill-35" fill="#5FB2E3"></path>
                    <path d="M101.117455,142.309404 C100.357944,142.588007 99.5914972,142.880482 98.8134901,143.191454 C99.5903411,142.880482 100.357944,142.588007 101.117455,142.309404" id="Fill-37" fill="#5FB2E3"></path>
                    <path d="M50.2398369,152.709151 C50.1820355,152.698747 50.124234,152.687187 50.0675887,152.677938 C50.124234,152.687187 50.1820355,152.698747 50.2398369,152.709151" id="Fill-39" fill="#5FB2E3"></path>
                    <g transform="translate(53.177305, 152.622333)">
                        <mask id="mask-6" fill="white">
                            <use xlink:href="#path-5"></use>
                        </mask>
                        <g id="Clip-42"></g>
                        <path d="M0.758701418,0.636624823 L0.484722695,0.6031 L0.758701418,0.636624823 Z" id="Fill-41" fill="#5FB2E3" mask="url(#mask-6)"></path>
                    </g>
                    <path d="M117.969111,138.428155 C118.90665,138.362261 119.822225,138.326424 120.716991,138.320644 C119.822225,138.32758 118.90665,138.362261 117.969111,138.428155" id="Fill-43" fill="#5FB2E3"></path>
                    <g transform="translate(0.000000, 0.026589)">
                        <mask id="mask-8" fill="white">
                            <use xlink:href="#path-7"></use>
                        </mask>
                        <g id="Clip-46"></g>
                        <path d="M64.3774858,25.6017511 C67.4039681,25.6017511 69.8570603,28.0548433 69.8570603,31.0813255 C69.8570603,34.1066518 67.4039681,36.559744 64.3774858,36.559744 C61.3521596,36.559744 58.8990674,34.1066518 58.8990674,31.0813255 C58.8990674,28.0548433 61.3521596,25.6017511 64.3774858,25.6017511 M48.9456631,60.5808574 C48.3375922,60.0779851 47.9410745,59.3277227 47.9410745,58.4757298 C47.9410745,56.9636447 49.1676206,55.7359426 50.6797057,55.7359426 C52.0935284,55.7359426 53.2426206,56.8098929 53.3905922,58.1844106 C56.6286277,56.3393894 59.821578,54.3117156 62.9636631,52.0921411 C117.352486,13.700439 151.628727,50.1742901 162.953181,80.8021057 C161.978649,36.6383539 125.899004,1.1286305 81.500578,1.1286305 C63.1705922,1.1286305 46.2555851,7.18159504 32.642195,17.3939496 C32.7196489,17.3927936 32.7959468,17.3835454 32.8734007,17.3835454 C37.4131241,17.3835454 41.0916064,21.0631837 41.0916064,25.6017511 C41.0916064,30.1414745 37.4131241,33.8199567 32.8734007,33.8199567 C28.3348333,33.8199567 24.6563511,30.1414745 24.6563511,25.6017511 C24.6563511,25.0954106 24.7083723,24.5994745 24.7962305,24.1174106 C12.2602589,36.2695809 3.60854255,52.3996447 0.905748227,70.4833965 C17.6635355,71.8590702 33.780883,68.3008149 48.9456631,60.5808574" id="Fill-45" fill="#00CDD3" mask="url(#mask-8)"></path>
                    </g>
                    <g transform="translate(56.645390, 152.622333)">
                        <mask id="mask-10" fill="white">
                            <use xlink:href="#path-9"></use>
                        </mask>
                        <g id="Clip-48"></g>
                        <path d="M0.958463121,0.992219149 C0.863668794,0.985282979 0.768874468,0.979502837 0.674080142,0.972566667 C0.768874468,0.979502837 0.863668794,0.985282979 0.958463121,0.992219149" id="Fill-47" fill="#5FB2E3" mask="url(#mask-10)"></path>
                    </g>
                    <g transform="translate(0.000000, 34.707440)">
                        <mask id="mask-12" fill="white">
                            <use xlink:href="#path-11"></use>
                        </mask>
                        <g id="Clip-50"></g>
                        <path d="M19.4425475,100.750416 C44.5803844,102.209323 72.9493206,91.9819404 93.1428241,81.3245149 C120.900221,66.6753234 143.006952,70.1838695 157.0342,78.5303943 C160.86759,69.0856426 163.000462,58.7715574 163.000462,47.9488199 C163.000462,47.3361248 162.966938,46.730366 162.954221,46.121139 C151.628611,15.4933234 117.35237,-20.9805277 62.9635475,17.4111745 C59.8214624,19.6307489 56.6285121,21.6584227 53.3904766,23.503444 C53.4008809,23.6005504 53.4205333,23.6953447 53.4205333,23.7959191 C53.4205333,25.3080043 52.1939872,26.5345504 50.6795901,26.5345504 C50.0183418,26.5345504 49.4206752,26.2906284 48.9455475,25.8998908 C33.7807674,33.6198482 17.6634199,37.1781035 0.905632624,35.8024298 C0.312590071,39.7664511 0.000462411348,43.8206426 0.000462411348,47.9488199 C0.000462411348,68.0983943 7.32390213,86.5277986 19.4425475,100.750416" id="Fill-49" fill="#00A2AE" mask="url(#mask-12)"></path>
                    </g>
                    <path d="M117.969111,138.428155 C117.887033,138.435091 117.800331,138.445495 117.717097,138.452431 C117.800331,138.445495 117.887033,138.435091 117.969111,138.428155" id="Fill-51" fill="#005279"></path>
                    <path d="M115.246087,138.706989 C114.994072,138.738201 114.737434,138.778662 114.481952,138.814499 C114.737434,138.778662 114.994072,138.738201 115.246087,138.706989" id="Fill-53" fill="#005279"></path>
                    <path d="M112.363877,139.161886 C112.073713,139.215063 111.78355,139.269396 111.489919,139.328354 C111.78355,139.269396 112.073713,139.215063 112.363877,139.161886" id="Fill-55" fill="#005279"></path>
                    <path d="M133.075396,140.465886 C133.017595,140.442765 132.96095,140.418489 132.904304,140.395368 C132.96095,140.418489 133.017595,140.442765 133.075396,140.465886" id="Fill-57" fill="#005279"></path>
                    <path d="M120.716875,138.320875 C120.778145,138.319719 120.835946,138.323187 120.894904,138.323187 C120.835946,138.323187 120.778145,138.319719 120.716875,138.320875" id="Fill-59" fill="#005279"></path>
                    <path d="M109.189307,139.838162 C108.951165,139.895964 108.718804,139.945673 108.47835,140.006943 C108.718804,139.945673 108.951165,139.895964 109.189307,139.838162" id="Fill-61" fill="#005279"></path>
                    <path d="M123.752606,138.423646 C123.586138,138.412086 123.423138,138.39937 123.255513,138.388965 C123.423138,138.39937 123.586138,138.412086 123.752606,138.423646" id="Fill-63" fill="#005279"></path>
                    <g transform="translate(60.113475, 152.622333)">
                        <mask id="mask-14" fill="white">
                            <use xlink:href="#path-13"></use>
                        </mask>
                        <g id="Clip-66"></g>
                        <path d="M8.22768511,0.857888652 C5.84857872,1.09256241 3.47756454,1.18504468 1.11001844,1.14805177 C3.47756454,1.18388865 5.84857872,1.09256241 8.22768511,0.857888652" id="Fill-65" fill="#005279" mask="url(#mask-14)"></path>
                    </g>
                    <path d="M135.120989,141.370131 C135.049315,141.334294 134.977641,141.299613 134.904811,141.264933 C134.977641,141.299613 135.049315,141.334294 135.120989,141.370131" id="Fill-67" fill="#005279"></path>
                    <path d="M53.6615652,153.225087 C52.5205652,153.079427 51.3795652,152.908335 50.2397213,152.709498 C51.3795652,152.908335 52.5205652,153.079427 53.6615652,153.225087" id="Fill-69" fill="#005279"></path>
                    <path d="M79.2037809,151.39047 C78.1228943,151.701441 77.0443199,151.9812 75.9657454,152.229746 C77.0443199,151.9812 78.1228943,151.702597 79.2037809,151.39047" id="Fill-71" fill="#005279"></path>
                    <g transform="translate(53.177305, 152.622333)">
                        <mask id="mask-16" fill="white">
                            <use xlink:href="#path-15"></use>
                        </mask>
                        <g id="Clip-74"></g>
                        <path d="M4.14204965,0.973029078 C3.01260993,0.889795035 1.88548227,0.776504255 0.75835461,0.636624823 C1.88548227,0.776504255 3.01260993,0.889795035 4.14204965,0.973029078" id="Fill-73" fill="#005279" mask="url(#mask-16)"></path>
                    </g>
                    <path d="M86.7528773,148.691259 C85.641934,149.168699 84.5333028,149.603365 83.4246716,150.009131 C84.5333028,149.603365 85.641934,149.168699 86.7528773,148.691259" id="Fill-75" fill="#005279"></path>
                    <path d="M75.4940858,152.334367 C74.3970149,152.577133 73.299944,152.792154 72.2040291,152.972494 C73.299944,152.792154 74.3970149,152.577133 75.4940858,152.334367" id="Fill-77" fill="#005279"></path>
                    <g transform="translate(56.645390, 152.622333)">
                        <mask id="mask-18" fill="white">
                            <use xlink:href="#path-17"></use>
                        </mask>
                        <g id="Clip-80"></g>
                        <path d="M4.3723305,1.14689574 C3.23364255,1.12493121 2.09495461,1.07290993 0.958578723,0.991987943 C2.09495461,1.07290993 3.23364255,1.12493121 4.3723305,1.14689574" id="Fill-79" fill="#005279" mask="url(#mask-18)"></path>
                    </g>
                    <g transform="translate(68.205674, 152.622333)">
                        <mask id="mask-20" fill="white">
                            <use xlink:href="#path-19"></use>
                        </mask>
                        <g id="Clip-82"></g>
                        <path d="M3.64877234,0.402875887 C2.50777234,0.583216312 1.36561631,0.735812057 0.228084397,0.850258865 C1.36561631,0.735812057 2.50777234,0.583216312 3.64877234,0.402875887" id="Fill-81" fill="#005279" mask="url(#mask-20)"></path>
                    </g>
                    <path d="M90.5710078,146.913172 C89.4022631,147.50159 88.2369865,148.041455 87.072866,148.548952 C88.2369865,148.041455 89.4034191,147.50159 90.5710078,146.913172" id="Fill-83" fill="#005279"></path>
                    <path d="M82.9619135,150.179183 C81.8787149,150.567609 80.7943603,150.919041 79.7123177,151.240417 C80.7943603,150.919041 81.8787149,150.567609 82.9619135,150.179183" id="Fill-85" fill="#005279"></path>
                    <path d="M98.8133745,143.191107 C98.4214809,143.348327 98.0272752,143.506703 97.6319135,143.672015 C98.0272752,143.506703 98.4214809,143.348327 98.8133745,143.191107" id="Fill-87" fill="#005279"></path>
                    <path d="M102.157187,141.928955 C101.813846,142.049182 101.46357,142.182126 101.117917,142.309289 C101.46357,142.182126 101.813846,142.049182 102.157187,141.928955" id="Fill-89" fill="#005279"></path>
                    <path d="M105.350946,140.873386 C105.233031,140.909223 105.110492,140.953152 104.991421,140.991301 C105.110492,140.953152 105.231875,140.909223 105.350946,140.873386" id="Fill-91" fill="#005279"></path>
                    <path d="M95.2278369,144.711747 C94.8636879,144.874747 94.5030071,145.028499 94.1365461,145.198435 C94.5030071,145.028499 94.8636879,144.874747 95.2278369,144.711747" id="Fill-93" fill="#005279"></path>
                    <path d="M132.903726,140.39583 C131.510712,139.858277 130.037932,139.414362 128.480762,139.079114 C130.037932,139.414362 131.510712,139.858277 132.903726,140.39583" id="Fill-95" fill="#5FB2E3"></path>
                    <g transform="translate(18.496454, 105.225170)">
                        <mask id="mask-22" fill="white">
                            <use xlink:href="#path-21"></use>
                        </mask>
                        <g id="Clip-98"></g>
                        <path d="M74.6462546,10.8071312 C54.4527511,21.4645567 26.0838149,31.6907837 0.945978014,30.2330319 C4.72850284,34.6710248 8.97112695,38.7044078 13.6125809,42.2453227 C19.5719071,44.5885922 25.556666,46.3839043 31.5703255,47.4520745 C31.628127,47.4624787 31.6859284,47.474039 31.7437298,47.4844433 C32.8835738,47.6821241 34.0234177,47.8543723 35.1655738,48.0000319 L35.4395525,48.0335567 C36.5666801,48.1734362 37.6938078,48.286727 38.8232475,48.369961 C38.9180418,48.3768972 39.0128362,48.3826773 39.1076305,48.3896135 C40.2440064,48.4693794 41.3826943,48.5225567 42.5213823,48.5445213 C42.590744,48.5456773 42.6577936,48.5445213 42.7271553,48.5456773 C45.0947014,48.5826702 47.4657156,48.4901879 49.844822,48.2555142 C49.8748787,48.2520461 49.9060915,48.2508901 49.9373043,48.247422 C51.0748362,48.1329752 52.2169922,47.9803794 53.3579922,47.800039 C53.4747511,47.7815426 53.5915099,47.7653582 53.7082688,47.7468617 C54.8030277,47.5665213 55.9000986,47.3515 56.9971695,47.108734 C57.1555454,47.0740532 57.3127652,47.0405284 57.4699851,47.0046915 C58.5474035,46.7561454 59.627134,46.4763865 60.7068645,46.1654149 C60.8779567,46.1168617 61.0467369,46.0659965 61.216673,46.0151312 C62.2975596,45.6937553 63.3819142,45.3423227 64.4651128,44.9538972 C64.6200206,44.8995638 64.7749284,44.8394504 64.9286801,44.783961 C66.0373113,44.378195 67.1459426,43.9435284 68.2568858,43.4660887 C68.3620844,43.4210035 68.469595,43.3701383 68.5759496,43.3238972 C69.7412262,42.8152447 70.9065028,42.2765355 72.0740915,41.688117 C73.2821411,41.0788901 74.4682262,40.5124362 75.639283,39.973727 C76.0069,39.8037908 76.3664248,39.648883 76.7317298,39.487039 C77.5409496,39.1240461 78.3432333,38.7749255 79.1351128,38.4466135 C79.5316305,38.2824574 79.9246801,38.1229255 80.3165738,37.9657057 C81.0945809,37.6558901 81.8610277,37.3634149 82.6205383,37.083656 C82.9673468,36.9564929 83.3176234,36.8247057 83.6609638,36.7033227 C84.6204674,36.3657624 85.5649426,36.0524787 86.4955454,35.7657837 C86.6146163,35.7287908 86.7371553,35.6848617 86.8550702,35.6478688 C87.9163043,35.3264929 88.9578858,35.0397979 89.982127,34.7808475 C90.2225809,34.720734 90.4549426,34.6710248 90.6930844,34.6132234 C91.4710915,34.4259468 92.2386943,34.2536986 92.9935809,34.1022589 C93.2872121,34.0444574 93.5773752,33.9901241 93.8675383,33.9369468 C94.5842759,33.8051596 95.2894532,33.6895567 95.9853823,33.5889823 C96.2408645,33.5531454 96.4975028,33.5138404 96.749517,33.4814716 C97.5887936,33.373961 98.4130418,33.2884149 99.2211057,33.2271454 C99.3031837,33.2202092 99.3898858,33.209805 99.4731199,33.2028688 C100.409503,33.1369752 101.325077,33.1022943 102.220999,33.0953582 C102.281113,33.0942021 102.338914,33.0976702 102.399028,33.0976702 C103.202467,33.0953582 103.988567,33.1196348 104.759638,33.1635638 C104.926106,33.1739681 105.090262,33.1866844 105.25673,33.1982447 C105.938787,33.2467979 106.608127,33.3138475 107.265907,33.3982376 C107.413879,33.4178901 107.563006,33.4352305 107.710978,33.456039 C108.462396,33.5635496 109.199943,33.6895567 109.917836,33.8421525 C109.938645,33.8467766 109.961765,33.8502447 109.98373,33.8548688 C111.542056,34.190117 113.01368,34.6328759 114.40785,35.1704291 C114.464496,35.1935496 114.521141,35.2178262 114.578943,35.2409468 C115.20551,35.4883369 115.814737,35.7542234 116.408935,36.0397624 C116.480609,36.0744433 116.553439,36.1091241 116.625113,36.144961 C117.252836,36.4547766 117.866687,36.7830887 118.457418,37.1333652 C127.125318,29.0804716 134.01756,19.1548121 138.538787,8.01301064 C124.510382,-0.334670213 102.403652,-3.84206028 74.6462546,10.8071312" id="Fill-97" fill="#27899D" mask="url(#mask-22)"></path>
                    </g>
                    <path d="M24.7958837,24.1438837 C27.2697844,21.7474369 29.8812525,19.4931816 32.6418482,17.4215787" id="Fill-99" fill="#FFFFFF"></path>
                    <path d="M32.8734007,33.8470078 C37.4131241,33.8470078 41.0916064,30.1673695 41.0916064,25.6288021 C41.0916064,21.0902348 37.4131241,17.4094404 32.8734007,17.4094404 C32.7959468,17.4094404 32.7196489,17.4198447 32.642195,17.4210007 C29.8815993,19.4926035 27.2689752,21.7468589 24.7962305,24.1433057 C24.7083723,24.6253695 24.6563511,25.1213057 24.6563511,25.6288021 C24.6563511,30.1673695 28.3348333,33.8470078 32.8734007,33.8470078" id="Fill-101" fill="#FFFFFF"></path>
                    <path d="M64.3774858,36.5869106 C67.4039681,36.5869106 69.8570603,34.1338184 69.8570603,31.1084922 C69.8570603,28.0820099 67.4039681,25.6289177 64.3774858,25.6289177 C61.3521596,25.6289177 58.8990674,28.0820099 58.8990674,31.1084922 C58.8990674,34.1338184 61.3521596,36.5869106 64.3774858,36.5869106" id="Fill-103" fill="#FFFFFF"></path>
                    <path d="M53.3907078,58.2105369 C53.2427362,56.8371752 52.093644,55.7632248 50.6798213,55.7632248 C49.1677362,55.7632248 47.9411901,56.9897709 47.9411901,58.5030121 C47.9411901,59.3538489 48.3377078,60.1052674 48.9457787,60.6069837 C49.4197504,60.9977213 50.018573,61.2416433 50.6798213,61.2416433 C52.1942184,61.2416433 53.4196085,60.0162532 53.4196085,58.5030121 C53.4196085,58.4024376 53.4011121,58.3076433 53.3907078,58.2105369" id="Fill-105" fill="#FFFFFF"></path>
                    <path d="M73.1910461,70.015783 C78.3041596,77.6871872 84.8761809,82.3910667 84.8761809,82.3910667 C84.8796489,82.3829745 84.880805,82.3748823 84.8865851,82.3702582 C97.269961,69.9001801 103.4235,51.3725135 104.285897,38.3255773 C105.150606,25.274017 104.040819,20.3100312 100.777351,26.6311943 C96.2006348,35.5014 88.5315426,43.1704922 77.0255922,50.8407404 C67.3796915,57.2728823 68.0767766,62.3455348 73.1910461,70.015783" id="Fill-107" fill="#005279"></path>
                    <path d="M95.518,144.581925 C99.1086241,119.931932 103.548929,97.8980312 69.355922,96.8622298 C45.9995248,96.1535844 33.375695,93.1421305 21.7969149,85.6811234 C15.6653404,85.3574355 14.4214539,85.0210312 20.7784539,90.4693929 C29.7272695,98.1396411 44.9359787,104.370634 67.0010922,103.458528 C72.8864326,103.214606 84.8131773,104.13596 90.912383,114.659287 C95.0740851,121.840535 94.0718085,135.585712 86.999227,148.581783 C88.1876241,148.065038 89.3783333,147.513613 90.5713546,146.913634 C92.2603121,146.060485 93.9030284,145.297506 95.518,144.581925" id="Fill-109" fill="#005279"></path>
                    <path d="M77.4595652,85.4291092 C77.3011894,85.4002085 77.1532177,85.3736199 77.0260546,85.3574355 C77.1751823,85.3770879 77.3115936,85.4059887 77.4595652,85.4291092" id="Fill-111" fill="#9FC3F8"></path>
                    <path d="M103.870999,95.5838936 C101.895346,92.0707234 102.133488,86.7853617 104.290637,82.4930284 C116.23819,58.722773 116.035885,38.9442837 113.659091,27.2290922 C112.900736,23.4962766 111.899616,18.5796879 110.219906,18.0837518 C109.263871,17.8028369 108.089346,18.9449929 106.611942,22.5610496 C105.574984,25.100844 104.449013,27.4498936 103.243275,29.6440355 C102.195913,31.5514823 101.088438,33.3421702 99.9139135,35.0230355 C95.6597291,41.1118369 90.5859206,45.8122482 84.7121404,49.8756879 C82.4902539,51.4120496 78.421034,55.0281064 78.4164099,61.4255674 C78.4140979,65.0554965 79.7157858,69.5767234 83.4185447,75.1302837 C79.7412184,71.0864965 76.6210979,68.3813901 73.8200411,66.668156 C66.8804028,62.4243759 61.9221972,64.305234 55.4576865,67.2461702 C48.099566,70.5963404 38.1935589,76.0863191 24.7177362,77.2978369 C22.5744596,77.4897376 20.3155801,77.4065035 18.6948284,77.4920496 C15.6810624,77.6481135 8.51137447,75.4354752 14.3863106,80.2422411 C16.8717716,82.2768511 19.3121475,84.0790993 21.7976085,85.6813546 C33.3763887,93.1423617 45.9990624,96.1538156 69.3566156,96.861305 C103.549623,97.8982624 99.1093177,119.932163 95.5175376,144.582156 C95.6273603,144.533603 95.738339,144.482738 95.8470057,144.43534 C103.919552,140.892113 111.075367,139.014723 117.336417,138.486418 C118.860062,138.358099 120.309722,138.336135 121.725857,138.362723 C118.248523,123.377128 112.497282,110.917454 103.870999,95.5838936" id="Fill-113" fill="#FFFFFF"></path>
                </g>
            </g>
        </g>
    </g>
</svg>