<svg xmlns="http://www.w3.org/2000/svg" xmlns:xlink="http://www.w3.org/1999/xlink" viewBox="0 0 1486.91 394.91"><defs><style>.cls-1,.cls-2{fill:none;}.cls-1{clip-rule:evenodd;}.cls-2,.cls-6{fill-rule:evenodd;}.cls-3{fill:#6f8397;}.cls-4{fill:#445665;}.cls-5,.cls-6{fill:#00cdd3;}.cls-7{clip-path:url(#clip-path);}.cls-8{fill:#00a2ae;}.cls-9{fill:#27899d;}.cls-10{fill:#fff;}.cls-11{fill:#005279;}</style><clipPath id="clip-path" transform="translate(34.57)"><path class="cls-1" d="M33.41,345.46A15.7,15.7,0,0,1,23,341.53a16,16,0,0,1-4.17-18.2L44.69,261.4C15.78,232.7,0,196.36,0,157.94,0,70.85,82.09,0,183,0S366,70.85,366,157.94,283.87,315.88,183,315.88a206.31,206.31,0,0,1-73.53-13.28l-68,40.63a15.68,15.68,0,0,1-8.06,2.23"/></clipPath></defs><g id="图层_2" data-name="图层 2"><g id="图层_2-2" data-name="图层 2"><path class="cls-3" d="M794.38,186.83c-10.15,9.38-26.42,19-50.45,19s-37.57-9.67-45.09-19c-10.52-13.54-12.41-27.62-8.3-56.89,4.08-29,10-43.35,24.29-56.88C725,63.67,741.25,54,765.28,54s37.57,9.66,45.09,19.05c10.52,13.53,12.37,27.89,8.29,56.88C814.55,159.21,808.71,173.29,794.38,186.83ZM771.1,99c-2.37-2.76-6.05-4.14-11.57-4.14S750,96.25,746.8,99c-6.61,5.8-8.92,16.3-11,30.93s-2.71,25.13,2.28,30.93c2.37,2.76,6,4.14,11.57,4.14s9.58-1.38,12.73-4.14c6.61-5.8,8.92-16.29,11-30.93S776.08,104.81,771.1,99Z" transform="translate(34.57)"/><path class="cls-3" d="M920.26,102.6c-3.8-4.41-7.48-7.73-15.21-7.73-6.07,0-18.73,3.59-21.09,20.44l-12.5,88.91H826.18L847.06,55.66h44.18l-1.71,12.15c7.56-6.62,21.54-13.8,37-13.8,14.63,0,24.07,3.58,32.85,13.8Z" transform="translate(34.57)"/><path class="cls-3" d="M1031.34,204.22l-23.28-54.4-10.19,9.67-6.29,44.73H946.3L973.93,7.62h45.28l-14.05,100,47.34-51.92h54.4l-63.33,61.58,43.83,87Z" transform="translate(34.57)"/><path class="cls-3" d="M1093.48,204.22l20.06-142.76h45.29l-20.07,142.76Zm23-163.74L1121.34,6h45.29l-4.85,34.52Z" transform="translate(34.57)"/><path class="cls-3" d="M1243.69,204.22l12.5-88.91c2.41-17.12-9.28-20.44-15.35-20.44s-18.69,3.32-21.1,20.44l-12.5,88.91H1162l20.88-148.56H1227l-1.71,12.15A57.66,57.66,0,0,1,1261.77,54c14.08,0,24.74,4.69,31.62,12.7,10.92,12.7,11.15,26.78,8.94,42.52l-13.35,95Z" transform="translate(34.57)"/><path class="cls-3" d="M1357.38,253.93c-23.19,0-40-4.15-53.06-19.34l32.12-28.16c5.94,6.9,13.87,9.39,24.09,9.39,19,0,25.85-13,27.21-22.64l1.51-10.77c-9.45,8.28-20,12.42-33.78,12.42-14.36,0-25.57-4.69-32.93-13.25-11.63-13.53-9.58-30.1-5.77-57.16s6.41-43.63,21.84-57.16c9.76-8.56,22.57-13.25,36.93-13.25,15.19,0,23.36,4.69,31.19,13.8l1.71-12.15h43.91L1433,193.45C1428.05,228.52,1398,253.93,1357.38,253.93Zm26.5-159.06c-16.57,0-19.69,14.36-21.83,29.55S1359,154,1375.57,154s19.69-14.36,21.83-29.54S1400.44,94.87,1383.88,94.87Z" transform="translate(34.57)"/><polygon class="cls-3" points="541.02 62.79 480.45 62.79 509.74 201.02 570.63 201.02 541.02 62.79"/><polygon class="cls-3" points="574.93 68.5 525.58 201.03 579.99 201.03 629.35 68.5 574.93 68.5"/><polygon class="cls-3" points="576.35 68.5 604.43 201.02 658.25 201.02 629.86 68.5 576.35 68.5"/><polygon class="cls-3" points="685.84 12.31 744.97 12.31 674.68 201.03 615.55 201.03 685.84 12.31"/><path class="cls-4" d="M514.64,101h0l-8.18-38.2H445.88l3.71,17.49C479.92,78.11,511.12,84.58,514.64,101Z" transform="translate(34.57)"/><path class="cls-5" d="M514.64,101,502.56,44.59C495.64,12.31,478,12.31,459.83,12.31H394.75S383,67.39,444.25,67.39h2.29C468.44,67.39,506.77,64.24,514.64,101Z" transform="translate(34.57)"/><path class="cls-3" d="M431.08,299.66h.21c1.41-1.56,7.49-7.85,8.7-9.28s2.09-2.45,2.09-3.17c0-.46-.17-.76-.59-.84s-.54-.17-.54-.42.21-.38.67-.38c.87,0,3.17.12,4.29.12,1.29,0,3.58-.12,4.87-.12.42,0,.71.08.71.38s-.21.38-.62.38a8.17,8.17,0,0,0-2.42.46A13.28,13.28,0,0,0,444,290c-1.29,1.26-7.58,7.59-9,9.11,1.5,2,9.67,10.89,11.29,12.45,1.84,1.78,3.71,3.67,6,4.56a7,7,0,0,0,2.58.63c.29,0,.55.09.55.34s-.21.42-1,.42H450.7c-1.25,0-2,0-2.87-.08-2.25-.21-3.38-1.14-5.17-2.74s-10-11.4-10.91-12.62l-.46-.64h-.21v3.85c0,3.88,0,7.21.12,9,.09,1.18.46,2.11,1.5,2.27a16.34,16.34,0,0,0,2,.17c.34,0,.55.13.55.34s-.34.42-.79.42c-2.34,0-5-.12-6-.12s-3.59.12-5.25.12c-.55,0-.84-.12-.84-.42s.17-.34.67-.34a6.46,6.46,0,0,0,1.5-.17c.83-.16,1-1.09,1.21-2.32.21-1.77.21-5.1.21-9v-7.43c0-6.42,0-7.6-.09-8.95s-.41-2.11-1.79-2.41a8.86,8.86,0,0,0-1.62-.12c-.46,0-.71-.09-.71-.38s.29-.38.91-.38c2.21,0,4.84.12,5.84.12s3.62-.12,5-.12c.58,0,.87.08.87.38s-.25.38-.58.38a6.45,6.45,0,0,0-1.17.12c-1.12.21-1.45.93-1.54,2.41s-.08,2.53-.08,8.95Z" transform="translate(34.57)"/><path class="cls-3" d="M474.65,297.81c0-6.42,0-7.6-.09-8.95s-.41-2.11-1.79-2.41a8.86,8.86,0,0,0-1.62-.12c-.46,0-.71-.09-.71-.38s.29-.38.92-.38c2.2,0,4.83.12,6,.12,1.34,0,9.63,0,10.42,0a16.51,16.51,0,0,0,1.79-.25,4.11,4.11,0,0,1,.67-.17c.21,0,.25.17.25.38s-.21.8-.34,2.74c0,.42-.12,2.28-.2,2.79-.05.21-.13.46-.42.46s-.38-.21-.38-.59a4.8,4.8,0,0,0-.24-1.52c-.3-.76-.71-1.26-2.8-1.52-.7-.08-5.08-.17-5.91-.17-.21,0-.29.13-.29.43v10.68c0,.29,0,.46.29.46.91,0,5.71,0,6.66-.09s1.63-.21,2-.63.46-.55.67-.55.29.09.29.34a30.35,30.35,0,0,0-.33,3.08c-.09.85-.17,2.53-.17,2.83s0,.8-.37.8a.33.33,0,0,1-.38-.38,11.77,11.77,0,0,0-.16-1.52c-.21-.84-.8-1.48-2.34-1.64-.79-.09-4.91-.13-5.91-.13-.21,0-.25.17-.25.42v3.34c0,1.43,0,5.31,0,6.54.08,2.91.75,3.54,5,3.54a10.34,10.34,0,0,0,3.91-.51c1.08-.5,1.58-1.39,1.87-3.12.09-.46.17-.63.46-.63s.34.34.34.76a34.67,34.67,0,0,1-.54,4.68c-.3,1.1-.67,1.1-2.25,1.1-6.3,0-9.08-.25-11.54-.25-1,0-3.59.12-5.25.12-.54,0-.84-.12-.84-.42s.17-.34.67-.34a6.32,6.32,0,0,0,1.5-.17c.83-.16,1-1.09,1.21-2.32.21-1.77.21-5.1.21-9Z" transform="translate(34.57)"/><path class="cls-3" d="M517.63,297.81c0-6.42,0-7.6-.08-8.95s-.42-2.11-1.79-2.41a9,9,0,0,0-1.63-.12c-.45,0-.71-.09-.71-.38s.3-.38.92-.38c2.21,0,4.83.12,6,.12,1.33,0,9.63,0,10.42,0a16.91,16.91,0,0,0,1.79-.25,4.28,4.28,0,0,1,.66-.17c.21,0,.25.17.25.38s-.2.8-.33,2.74c0,.42-.12,2.28-.21,2.79,0,.21-.12.46-.41.46s-.38-.21-.38-.59a4.58,4.58,0,0,0-.25-1.52c-.29-.76-.71-1.26-2.79-1.52-.71-.08-5.08-.17-5.91-.17-.21,0-.3.13-.3.43v10.68c0,.29,0,.46.3.46.91,0,5.7,0,6.66-.09s1.63-.21,2-.63.46-.55.67-.55.29.09.29.34a30.35,30.35,0,0,0-.33,3.08c-.09.85-.17,2.53-.17,2.83s0,.8-.38.8-.37-.17-.37-.38a10.36,10.36,0,0,0-.17-1.52c-.21-.84-.79-1.48-2.33-1.64-.79-.09-4.92-.13-5.92-.13-.21,0-.25.17-.25.42v3.34c0,1.43,0,5.31,0,6.54.09,2.91.75,3.54,5,3.54a10.42,10.42,0,0,0,3.92-.51c1.08-.5,1.58-1.39,1.87-3.12.09-.46.17-.63.46-.63s.33.34.33.76a33.13,33.13,0,0,1-.54,4.68c-.29,1.1-.66,1.1-2.25,1.1-6.29,0-9.08-.25-11.54-.25-1,0-3.58.12-5.25.12-.54,0-.83-.12-.83-.42s.17-.34.67-.34a6.46,6.46,0,0,0,1.5-.17c.83-.16,1-1.09,1.21-2.32.2-1.77.2-5.1.2-9Z" transform="translate(34.57)"/><path class="cls-3" d="M560.62,297.81c0-6.42,0-7.6-.08-8.95s-.42-2.11-1.79-2.41a9.06,9.06,0,0,0-1.63-.12c-.46,0-.71-.09-.71-.38s.29-.38.92-.38c2.21,0,4.83.12,6,.12,1.71,0,4.12-.12,6-.12,5.21,0,7.08,1.77,7.75,2.4a7.42,7.42,0,0,1,2.08,5A9.87,9.87,0,0,1,569,303.21a6.41,6.41,0,0,1-.87,0c-.21,0-.5-.09-.5-.38s.29-.47,1.17-.47c2.33,0,5.58-2.66,5.58-7a8.2,8.2,0,0,0-2.46-6.33,6.17,6.17,0,0,0-4.17-1.65,5.66,5.66,0,0,0-1.62.17c-.21.09-.34.34-.34.8v16.89c0,3.88,0,7.21.21,9,.13,1.18.38,2.11,1.63,2.27a16.24,16.24,0,0,0,2.12.17c.46,0,.67.13.67.34s-.34.42-.79.42c-2.75,0-5.38-.12-6.46-.12s-3.58.12-5.25.12c-.54,0-.83-.12-.83-.42s.16-.34.66-.34a6.32,6.32,0,0,0,1.5-.17c.84-.16,1-1.09,1.21-2.32.21-1.77.21-5.1.21-9Z" transform="translate(34.57)"/><path class="cls-3" d="M639.27,287.93l-6.21.17c-2.42.08-3.42.3-4,1.22a4.93,4.93,0,0,0-.71,1.48c-.09.34-.21.51-.46.51s-.37-.21-.37-.68c0-.67.79-4.51.87-4.85.13-.55.25-.8.5-.8a9.31,9.31,0,0,0,1.79.5c1.21.13,2.79.21,4.17.21h16.5a18.87,18.87,0,0,0,2.87-.21c.62-.12,1-.21,1.12-.21s.34.26.34.89c0,.88-.13,3.8-.13,4.89,0,.43-.12.68-.37.68s-.42-.21-.46-.85l0-.46c-.08-1.1-1.21-2.28-4.92-2.36l-5.25-.13v17.31c0,3.88,0,7.21.21,9,.13,1.18.38,2.11,1.63,2.27a16.24,16.24,0,0,0,2.12.17c.46,0,.67.13.67.34s-.33.42-.79.42c-2.75,0-5.38-.12-6.55-.12-1,0-3.58.12-5.24.12-.55,0-.84-.12-.84-.42s.17-.34.67-.34a6.46,6.46,0,0,0,1.5-.17c.83-.16,1.08-1.09,1.21-2.32.21-1.77.21-5.1.21-9Z" transform="translate(34.57)"/><path class="cls-3" d="M701.33,299c.13,0,.25-.08.25-.3v-.88c0-6.42,0-7.6-.08-8.95s-.42-2.11-1.79-2.41a9,9,0,0,0-1.63-.12c-.46,0-.71-.09-.71-.38s.3-.38.88-.38c2.25,0,4.87.12,6,.12s3.62-.12,5.25-.12c.58,0,.87.08.87.38s-.25.38-.75.38a7.65,7.65,0,0,0-1.2.12c-1.13.21-1.46.93-1.55,2.41s-.08,2.53-.08,8.95v7.43c0,3.88,0,7.21.21,9,.12,1.18.37,2.11,1.62,2.27a16.4,16.4,0,0,0,2.13.17c.46,0,.66.13.66.34s-.33.42-.83.42c-2.71,0-5.33-.12-6.5-.12-1,0-3.58.12-5.21.12-.58,0-.87-.12-.87-.42s.17-.34.67-.34a6.46,6.46,0,0,0,1.5-.17c.83-.16,1-1.09,1.2-2.32.21-1.77.21-5.1.21-9v-3.72a.24.24,0,0,0-.25-.25H685.42c-.13,0-.25,0-.25.25v3.72c0,3.88,0,7.21.21,9,.12,1.18.37,2.11,1.62,2.27a16.4,16.4,0,0,0,2.13.17c.45,0,.66.13.66.34s-.33.42-.83.42c-2.71,0-5.33-.12-6.5-.12-1,0-3.58.12-5.25.12-.54,0-.83-.12-.83-.42s.16-.34.66-.34a6.32,6.32,0,0,0,1.5-.17c.84-.16,1.05-1.09,1.21-2.32.21-1.77.21-5.1.21-9v-7.43c0-6.42,0-7.6-.08-8.95s-.42-2.11-1.79-2.41a9.06,9.06,0,0,0-1.63-.12c-.46,0-.71-.09-.71-.38s.29-.38.88-.38c2.25,0,4.87.12,6,.12s3.62-.12,5.25-.12c.58,0,.87.08.87.38s-.25.38-.75.38a7.76,7.76,0,0,0-1.21.12c-1.12.21-1.46.93-1.54,2.41s-.08,2.53-.08,8.95v.88c0,.22.12.3.25.3Z" transform="translate(34.57)"/><path class="cls-3" d="M737.11,297.81c0-6.42,0-7.6-.08-8.95s-.42-2.11-1.8-2.41a8.86,8.86,0,0,0-1.62-.12c-.46,0-.71-.09-.71-.38s.29-.38.92-.38c2.21,0,4.83.12,6,.12,1.34,0,9.63,0,10.42,0a16.51,16.51,0,0,0,1.79-.25,4.11,4.11,0,0,1,.67-.17c.21,0,.25.17.25.38a26.44,26.44,0,0,0-.33,2.74c-.05.42-.13,2.28-.21,2.79,0,.21-.13.46-.42.46s-.37-.21-.37-.59a4.85,4.85,0,0,0-.25-1.52c-.3-.76-.71-1.26-2.79-1.52-.71-.08-5.09-.17-5.92-.17-.21,0-.29.13-.29.43v10.68c0,.29,0,.46.29.46.91,0,5.71,0,6.66-.09s1.63-.21,2-.63.46-.55.67-.55.29.09.29.34a30.35,30.35,0,0,0-.33,3.08c-.09.85-.17,2.53-.17,2.83s0,.8-.37.8a.34.34,0,0,1-.38-.38,11.77,11.77,0,0,0-.16-1.52c-.21-.84-.79-1.48-2.34-1.64-.79-.09-4.91-.13-5.91-.13-.21,0-.25.17-.25.42v3.34c0,1.43,0,5.31,0,6.54.08,2.91.75,3.54,5,3.54a10.34,10.34,0,0,0,3.91-.51c1.08-.5,1.58-1.39,1.88-3.12.08-.46.16-.63.46-.63s.33.34.33.76a33.13,33.13,0,0,1-.54,4.68c-.29,1.1-.67,1.1-2.25,1.1-6.29,0-9.08-.25-11.54-.25-1,0-3.58.12-5.25.12-.54,0-.84-.12-.84-.42s.17-.34.67-.34a6.32,6.32,0,0,0,1.5-.17c.84-.16,1-1.09,1.21-2.32.21-1.77.21-5.1.21-9Z" transform="translate(34.57)"/><path class="cls-3" d="M805.54,289.7c-.5-1.56-.95-2.57-1.54-3a3.56,3.56,0,0,0-1.66-.38c-.42,0-.67,0-.67-.38s.33-.38.92-.38c2.16,0,4.45.12,4.83.12s2.21-.12,4.62-.12c.59,0,.88.12.88.38s-.33.38-.75.38a2.16,2.16,0,0,0-1,.17c-.38.16-.46.46-.46.92a27.57,27.57,0,0,0,.91,3.89c.71,2.78,4.59,15.57,5.34,17.93H817l8.08-22c.46-1.19.71-1.52,1-1.52s.66.63,1.2,2L836,309h.12c.76-2.83,4.09-14,5.55-18.91a9.1,9.1,0,0,0,.41-2.45c0-.67-.37-1.26-2-1.26-.41,0-.71-.13-.71-.38s.34-.38,1-.38c2.21,0,4,.12,4.34.12s2.08-.12,3.45-.12c.46,0,.75.08.75.34s-.21.42-.58.42a4.49,4.49,0,0,0-1.46.21c-1,.38-1.46,2.07-2.33,4.47-1.92,5.32-6.29,18.74-8.33,25.07-.46,1.48-.67,2-1.21,2s-.67-.5-1.29-2.06L825,294.85H825c-.79,2.15-6.33,17.09-8.13,21-.79,1.73-1,2.23-1.5,2.23s-.62-.46-1-1.56Z" transform="translate(34.57)"/><path class="cls-3" d="M866.57,301.52c0-7.22,4.71-16.54,17.2-16.54,10.38,0,16.83,6.12,16.83,15.78s-6.66,17.3-17.24,17.3C871.4,318.06,866.57,309,866.57,301.52Zm28.2.8c0-9.45-5.37-15.32-12.2-15.32-4.8,0-10.25,2.7-10.25,13.21,0,8.78,4.79,15.74,12.79,15.74C888,316,894.77,314.52,894.77,302.32Z" transform="translate(34.57)"/><path class="cls-3" d="M926,297.81c0-6.42,0-7.6-.09-8.95s-.41-2.11-1.79-2.41a8.86,8.86,0,0,0-1.62-.12c-.46,0-.71-.09-.71-.38s.29-.38.92-.38c2.2,0,4.83.12,5.7.12,1.42,0,4.59-.12,5.88-.12,2.62,0,5.41.25,7.66,1.81a7.34,7.34,0,0,1,2.84,5.78c0,3.13-1.29,6-5.5,9.46,3.71,4.73,6.58,8.48,9,11.1,2.33,2.44,4,2.74,4.66,2.87a6.91,6.91,0,0,0,1.17.12c.33,0,.5.13.5.34s-.29.42-.79.42h-4c-2.33,0-3.37-.21-4.46-.8-1.79-1-3.37-2.95-5.7-6.2-1.67-2.32-3.59-5.19-4.13-5.83a.87.87,0,0,0-.75-.29l-3.62-.09a.3.3,0,0,0-.34.34v.59c0,3.93,0,7.26.21,9,.13,1.23.38,2.16,1.62,2.32a17.84,17.84,0,0,0,2,.17c.33,0,.5.13.5.34s-.29.42-.84.42c-2.41,0-5.49-.12-6.12-.12-.79,0-3.42.12-5.08.12-.54,0-.84-.12-.84-.42s.17-.34.67-.34a6.32,6.32,0,0,0,1.5-.17c.83-.16,1-1.09,1.21-2.32.21-1.77.21-5.1.21-9Zm4.91,3.33c0,.47.09.63.38.76a10.64,10.64,0,0,0,3.16.42c1.67,0,2.21-.17,3-.71,1.25-.93,2.46-2.88,2.46-6.34,0-6-3.92-7.72-6.37-7.72a8.79,8.79,0,0,0-2.21.17c-.29.08-.38.25-.38.59Z" transform="translate(34.57)"/><path class="cls-3" d="M979.28,305.24c0,5.4,0,8.31.88,9.07.71.63,1.79.93,5,.93,2.21,0,3.83-.05,4.88-1.19a5.25,5.25,0,0,0,1.08-2.53c0-.38.12-.63.46-.63s.33.21.33.72a32.87,32.87,0,0,1-.63,4.85c-.24.93-.45,1.14-2.62,1.14-6,0-8.75-.25-12.12-.25-1,0-3.59.12-5.25.12-.54,0-.84-.12-.84-.42s.17-.34.67-.34a6.32,6.32,0,0,0,1.5-.17c.84-.16,1-1.09,1.21-2.32.21-1.77.21-5.1.21-9v-7.43c0-6.42,0-7.6-.08-8.95s-.42-2.11-1.8-2.41a6.37,6.37,0,0,0-1.37-.12c-.46,0-.71-.09-.71-.38s.29-.38.92-.38c2,0,4.58.12,5.7.12s4-.12,5.67-.12c.58,0,.88.08.88.38s-.26.38-.76.38a11.57,11.57,0,0,0-1.62.12c-1.12.21-1.46.93-1.54,2.41s-.09,2.53-.09,8.95Z" transform="translate(34.57)"/><path class="cls-3" d="M1015.94,297.81c0-6.42,0-7.6-.08-8.95s-.42-2.11-1.79-2.41a9.06,9.06,0,0,0-1.63-.12c-.46,0-.71-.09-.71-.38s.29-.38.92-.38c2.21,0,4.83.12,6,.12s3.92-.12,6.41-.12c5.21,0,12.17,0,16.71,4.81a15.19,15.19,0,0,1,4,10.72,16.86,16.86,0,0,1-4.54,11.77c-1.91,2-6.25,5-14,5-3,0-6.8-.5-8.88-.5-1,0-3.58.12-5.25.12-.54,0-.83-.12-.83-.42s.16-.34.66-.34a6.32,6.32,0,0,0,1.5-.17c.84-.16,1.05-1.09,1.21-2.32.21-1.77.21-5.1.21-9Zm5.21,4.64c0,4.47,0,7.72.08,8.52a9.34,9.34,0,0,0,.46,3.21c.54.8,2.17,1.69,5.46,1.69,4.25,0,7.08-.84,9.58-3,2.67-2.32,3.5-6.16,3.5-10.51a14.44,14.44,0,0,0-4-10.55c-3.83-3.71-8.58-4.22-11.83-4.22a10.92,10.92,0,0,0-2.71.3.76.76,0,0,0-.5.84c0,1.44,0,5.11,0,8.44Z" transform="translate(34.57)"/><path class="cls-3" d="M1097,289.7a6.18,6.18,0,0,0-1.54-3,3.6,3.6,0,0,0-1.67-.38c-.41,0-.66,0-.66-.38s.33-.38.91-.38c2.17,0,4.46.12,4.83.12s2.21-.12,4.63-.12c.58,0,.88.12.88.38s-.34.38-.76.38a2.18,2.18,0,0,0-1,.17c-.37.16-.46.46-.46.92a28.15,28.15,0,0,0,.92,3.89c.71,2.78,4.58,15.57,5.33,17.93h.13l8.08-22c.46-1.19.71-1.52,1-1.52s.67.63,1.21,2l8.67,21.23h.12c.75-2.83,4.08-14,5.54-18.91a9.18,9.18,0,0,0,.42-2.45c0-.67-.38-1.26-2-1.26-.42,0-.71-.13-.71-.38s.33-.38,1-.38c2.21,0,4,.12,4.33.12s2.09-.12,3.46-.12c.46,0,.75.08.75.34s-.21.42-.58.42a4.49,4.49,0,0,0-1.46.21c-1,.38-1.46,2.07-2.34,4.47-1.91,5.32-6.29,18.74-8.33,25.07-.46,1.48-.66,2-1.21,2s-.66-.5-1.29-2.06l-8.66-21.15h-.08c-.8,2.15-6.34,17.09-8.13,21-.79,1.73-1,2.23-1.5,2.23s-.62-.46-1-1.56Z" transform="translate(34.57)"/><path class="cls-3" d="M1158.06,301.52c0-7.22,4.71-16.54,17.21-16.54,10.37,0,16.83,6.12,16.83,15.78s-6.66,17.3-17.25,17.3C1162.9,318.06,1158.06,309,1158.06,301.52Zm28.21.8c0-9.45-5.37-15.32-12.21-15.32-4.79,0-10.25,2.7-10.25,13.21,0,8.78,4.79,15.74,12.79,15.74C1179.52,316,1186.27,314.52,1186.27,302.32Z" transform="translate(34.57)"/><path class="cls-3" d="M1217.46,297.81c0-6.42,0-7.6-.08-8.95s-.42-2.11-1.79-2.41a9,9,0,0,0-1.63-.12c-.45,0-.71-.09-.71-.38s.3-.38.92-.38c2.21,0,4.83.12,5.71.12,1.42,0,4.58-.12,5.87-.12,2.63,0,5.42.25,7.67,1.81a7.37,7.37,0,0,1,2.83,5.78c0,3.13-1.29,6-5.5,9.46,3.71,4.73,6.59,8.48,9,11.1,2.34,2.44,4,2.74,4.67,2.87a6.81,6.81,0,0,0,1.17.12c.33,0,.5.13.5.34s-.29.42-.79.42h-4c-2.34,0-3.38-.21-4.46-.8-1.79-1-3.38-2.95-5.71-6.2-1.67-2.32-3.58-5.19-4.12-5.83a.87.87,0,0,0-.75-.29l-3.63-.09c-.21,0-.33.09-.33.34v.59c0,3.93,0,7.26.21,9,.12,1.23.37,2.16,1.62,2.32a17.68,17.68,0,0,0,2,.17c.34,0,.5.13.5.34s-.29.42-.83.42c-2.42,0-5.5-.12-6.12-.12-.8,0-3.42.12-5.09.12-.54,0-.83-.12-.83-.42s.17-.34.67-.34a6.46,6.46,0,0,0,1.5-.17c.83-.16,1-1.09,1.2-2.32.21-1.77.21-5.1.21-9Zm4.92,3.33c0,.47.08.63.37.76a10.76,10.76,0,0,0,3.17.42c1.67,0,2.21-.17,3-.71,1.25-.93,2.46-2.88,2.46-6.34,0-6-3.92-7.72-6.38-7.72a8.89,8.89,0,0,0-2.21.17c-.29.08-.37.25-.37.59Z" transform="translate(34.57)"/><path class="cls-3" d="M1270.66,299.66h.2c1.42-1.56,7.5-7.85,8.71-9.28s2.08-2.45,2.08-3.17c0-.46-.16-.76-.58-.84s-.54-.17-.54-.42.21-.38.67-.38c.87,0,3.16.12,4.29.12,1.29,0,3.58-.12,4.87-.12.42,0,.71.08.71.38s-.21.38-.62.38a8.17,8.17,0,0,0-2.42.46,13.28,13.28,0,0,0-4.5,3.17c-1.29,1.26-7.58,7.59-9,9.11,1.5,2,9.67,10.89,11.29,12.45,1.83,1.78,3.71,3.67,6,4.56a7,7,0,0,0,2.58.63c.29,0,.54.09.54.34s-.21.42-1,.42h-3.62c-1.25,0-2,0-2.88-.08-2.24-.21-3.37-1.14-5.16-2.74s-10-11.4-10.92-12.62l-.46-.64h-.2v3.85c0,3.88,0,7.21.12,9,.08,1.18.46,2.11,1.5,2.27a16.18,16.18,0,0,0,2,.17c.34,0,.54.13.54.34s-.33.42-.79.42c-2.33,0-5-.12-6-.12s-3.58.12-5.25.12c-.54,0-.83-.12-.83-.42s.17-.34.67-.34a6.46,6.46,0,0,0,1.5-.17c.83-.16,1-1.09,1.21-2.32.2-1.77.2-5.1.2-9v-7.43c0-6.42,0-7.6-.08-8.95s-.42-2.11-1.79-2.41a8.9,8.9,0,0,0-1.63-.12c-.45,0-.71-.09-.71-.38s.3-.38.92-.38c2.21,0,4.83.12,5.83.12s3.63-.12,5.05-.12c.58,0,.87.08.87.38s-.25.38-.58.38a6.45,6.45,0,0,0-1.17.12c-1.12.21-1.46.93-1.54,2.41s-.08,2.53-.08,8.95Z" transform="translate(34.57)"/><path class="cls-3" d="M1314.23,297.81c0-6.42,0-7.6-.09-8.95s-.5-2.15-1.42-2.36a5.66,5.66,0,0,0-1.5-.17c-.41,0-.66-.09-.66-.42s.33-.34,1-.34c1.58,0,4.21.12,5.41.12,1,0,3.5-.12,5.09-.12.54,0,.87.08.87.34s-.25.42-.67.42a7.28,7.28,0,0,0-1.24.12c-1.13.21-1.46.93-1.55,2.41s-.08,2.53-.08,8.95v7.43c0,4.09,0,7.42.17,9.24.12,1.14.41,1.9,1.66,2.06a16.4,16.4,0,0,0,2.13.17c.46,0,.67.13.67.34s-.34.42-.8.42c-2.75,0-5.37-.12-6.5-.12-1,0-3.58.12-5.24.12-.55,0-.84-.12-.84-.42s.17-.34.67-.34a6.46,6.46,0,0,0,1.5-.17c.83-.16,1.08-.88,1.21-2.11.21-1.77.21-5.1.21-9.19Z" transform="translate(34.57)"/><path class="cls-3" d="M1352,311.73c.09,3.3.63,4.39,1.46,4.69a6.63,6.63,0,0,0,2.17.29c.46,0,.71.09.71.34s-.38.42-1,.42c-2.71,0-4.38-.12-5.17-.12-.37,0-2.33.12-4.49.12-.55,0-.92,0-.92-.42s.25-.34.66-.34a7.23,7.23,0,0,0,1.88-.21c1.08-.34,1.25-1.56,1.29-5.23l.38-25c0-.85.12-1.44.54-1.44s.83.55,1.54,1.31c.5.55,6.83,7.43,12.91,13.54,2.84,2.88,8.46,8.95,9.17,9.63h.21l-.42-18.95c0-2.58-.42-3.38-1.42-3.8a6.74,6.74,0,0,0-2.2-.25c-.5,0-.67-.13-.67-.38s.46-.38,1.08-.38c2.17,0,4.17.12,5,.12.46,0,2.05-.12,4.09-.12.54,0,.95,0,.95.38s-.24.38-.75.38a4.67,4.67,0,0,0-1.24.12c-1.17.34-1.5,1.23-1.55,3.59l-.45,26.63c0,.93-.17,1.31-.55,1.31s-.95-.46-1.41-.93c-2.63-2.53-8-8.06-12.29-12.41-4.54-4.56-9.17-9.83-9.92-10.63h-.12Z" transform="translate(34.57)"/><path class="cls-3" d="M1430.9,314.65c0,1.14,0,1.22-.54,1.51-2.71,1.44-6.79,1.9-10,1.9-10.21,0-19.25-4.89-19.25-16.54a15.83,15.83,0,0,1,7.25-13.8c4-2.45,7.71-2.74,11.21-2.74a49.49,49.49,0,0,1,7.37.67,28.63,28.63,0,0,0,3.29.47c.5,0,.59.21.59.5a56.25,56.25,0,0,0-.3,6.92c0,.68-.12.89-.45.89s-.38-.21-.42-.55a6,6,0,0,0-1.42-3.5c-1.25-1.35-4.58-3.29-9.29-3.29a11.94,11.94,0,0,0-8.25,2.61c-2.33,2-3.83,5.15-3.83,10.34,0,9.08,5.71,15.87,14.5,15.87a9.19,9.19,0,0,0,3.54-.46,1.5,1.5,0,0,0,.79-1.56v-4c0-2.11,0-3.71,0-5,0-1.44-.41-2.11-1.79-2.41a8.9,8.9,0,0,0-1.63-.12c-.37,0-.62-.09-.62-.34s.29-.42.87-.42c2.17,0,4.8.12,6,.12s3.51-.12,4.88-.12c.54,0,.83.08.83.42s-.25.34-.54.34a6.8,6.8,0,0,0-1.12.12c-1.13.22-1.55.93-1.59,2.41,0,1.27,0,2.95,0,5.06Z" transform="translate(34.57)"/><path class="cls-6" d="M33.41,345.46A15.7,15.7,0,0,1,23,341.53a16,16,0,0,1-4.17-18.2L44.69,261.4C15.78,232.7,0,196.36,0,157.94,0,70.85,82.09,0,183,0S366,70.85,366,157.94,283.87,315.88,183,315.88a206.31,206.31,0,0,1-73.53-13.28l-68,40.63a15.68,15.68,0,0,1-8.06,2.23" transform="translate(34.57)"/><g class="cls-7"><path class="cls-8" d="M14.26,305.65c63.12,3.4,134.36-20.43,185.07-45.27,69.7-34.14,125.21-26,160.44-6.51a177.18,177.18,0,0,0,15-71.27c0-1.42-.08-2.83-.11-4.25C346.2,107,267.81,33.05,123.55,111.44,92.07,128.54,58.15,160-32.29,154.3a177.55,177.55,0,0,0-2.28,28.3C-34.57,229.56-16.17,272.51,14.26,305.65Z" transform="translate(34.57)"/><path class="cls-9" d="M362.65,239.46C327.43,220,271.91,211.83,202.21,246,151.5,270.8,80.27,294.64,17.14,291.24c3.07,3.34,2.34,9.3.36,16.09l-23.24,4.4-28.83,83.18,394.91-5.55v-145C361.11,242.73,361.93,241.12,362.65,239.46Z" transform="translate(34.57)"/></g><path class="cls-10" d="M158.65,79.19a11.56,11.56,0,1,0-11.56-11.56A11.57,11.57,0,0,0,158.65,79.19Z" transform="translate(34.57)"/><path class="cls-10" d="M98.11,76.19A17.21,17.21,0,1,0,80.9,59,17.22,17.22,0,0,0,98.11,76.19Z" transform="translate(34.57)"/><path class="cls-10" d="M135.47,124.8a5.56,5.56,0,1,0,.06.62C135.53,125.21,135.49,125,135.47,124.8Z" transform="translate(34.57)"/><g class="cls-7"><path class="cls-11" d="M177.24,149.71a111.31,111.31,0,0,0,24.65,26.1s0,0,0,0C228,149.47,241,110.38,242.84,82.85s-.52-38-7.4-24.67c-9.66,18.72-25.84,34.9-50.11,51.08C165,122.82,166.45,133.53,177.24,149.71Z" transform="translate(34.57)"/><path class="cls-11" d="M224.86,317.08c11.53-54.77,16.42-108.55-55.71-110.74-49.27-1.49-75.9-7.85-100.33-23.58-12.94-.69-15.56-1.4-2.15,10.1,18.88,16.18,51,29.32,97.51,27.4,12.42-.52,37.58,1.43,50.44,23.63,8.78,15.15,5,48.65-9.94,76.07C207.19,318.87,221.45,318.59,224.86,317.08Z" transform="translate(34.57)"/><path class="cls-10" d="M242,203.65c-4.17-7.41-3.66-18.57.89-27.62,25.2-50.14,24.77-91.87,19.76-116.58-1.6-7.88-3.71-18.25-7.26-19.3-2-.59-4.49,1.82-7.6,9.45a145,145,0,0,1-7.11,14.94,124.62,124.62,0,0,1-7,11.35c-9,12.84-19.67,22.76-32.07,31.33-4.68,3.24-13.27,10.87-13.28,24.37,0,7.65,2.74,17.19,10.55,28.91-7.75-8.53-14.34-14.24-20.24-17.85-14.64-9-25.1-5-38.74,1.22-15.52,7.06-36.42,18.65-64.85,21.2-4.52.4-9.29.23-12.7.41-6.36.33-21.49-4.34-9.09,5.8a169.63,169.63,0,0,0,15.63,11.48c24.43,15.73,51.06,22.09,100.33,23.58C241.28,208.53,233.51,271,222,320c.23-.1,54.66-26.12,57.65-26.07C272.29,262.28,260.16,236,242,203.65Z" transform="translate(34.57)"/></g></g></g></svg>